<mxfile host="Electron" modified="2023-05-27T21:42:23.452Z" agent="Mozilla/5.0 (Windows NT 10.0; Win64; x64) AppleWebKit/537.36 (KHTML, like Gecko) draw.io/21.2.1 Chrome/112.0.5615.87 Electron/24.1.2 Safari/537.36" etag="1TE0QprhZ5d_hpFL16NS" version="21.2.1" type="device">
  <diagram id="C5RBs43oDa-KdzZeNtuy" name="Page-1">
    <mxGraphModel dx="2073" dy="1035" grid="1" gridSize="10" guides="1" tooltips="1" connect="1" arrows="1" fold="1" page="1" pageScale="1" pageWidth="827" pageHeight="1169" math="0" shadow="0">
      <root>
        <mxCell id="WIyWlLk6GJQsqaUBKTNV-0" />
        <mxCell id="WIyWlLk6GJQsqaUBKTNV-1" parent="WIyWlLk6GJQsqaUBKTNV-0" />
        <mxCell id="rHO2FgDQ3E9ZfaL1L63m-9" value="usuario&lt;br&gt;" style="swimlane;fontStyle=1;align=center;verticalAlign=top;childLayout=stackLayout;horizontal=1;startSize=26;horizontalStack=0;resizeParent=1;resizeParentMax=0;resizeLast=0;collapsible=1;marginBottom=0;whiteSpace=wrap;html=1;" parent="WIyWlLk6GJQsqaUBKTNV-1" vertex="1">
          <mxGeometry x="289.96" y="640" width="160" height="108" as="geometry" />
        </mxCell>
        <mxCell id="rHO2FgDQ3E9ZfaL1L63m-10" value="- dni&lt;br&gt;- nombre&lt;br&gt;- telefono&lt;br&gt;- email&lt;br&gt;- contraseÃ±a&lt;br&gt;" style="text;strokeColor=none;fillColor=none;align=left;verticalAlign=top;spacingLeft=4;spacingRight=4;overflow=hidden;rotatable=0;points=[[0,0.5],[1,0.5]];portConstraint=eastwest;whiteSpace=wrap;html=1;" parent="rHO2FgDQ3E9ZfaL1L63m-9" vertex="1">
          <mxGeometry y="26" width="160" height="74" as="geometry" />
        </mxCell>
        <mxCell id="rHO2FgDQ3E9ZfaL1L63m-11" value="" style="line;strokeWidth=1;fillColor=none;align=left;verticalAlign=middle;spacingTop=-1;spacingLeft=3;spacingRight=3;rotatable=0;labelPosition=right;points=[];portConstraint=eastwest;strokeColor=inherit;" parent="rHO2FgDQ3E9ZfaL1L63m-9" vertex="1">
          <mxGeometry y="100" width="160" height="8" as="geometry" />
        </mxCell>
        <mxCell id="rHO2FgDQ3E9ZfaL1L63m-29" value="representante-de-organizacion&lt;br&gt;" style="swimlane;fontStyle=1;align=center;verticalAlign=top;childLayout=stackLayout;horizontal=1;startSize=40;horizontalStack=0;resizeParent=1;resizeParentMax=0;resizeLast=0;collapsible=1;marginBottom=0;whiteSpace=wrap;html=1;" parent="WIyWlLk6GJQsqaUBKTNV-1" vertex="1">
          <mxGeometry x="1063.46" y="500" width="160" height="48" as="geometry" />
        </mxCell>
        <mxCell id="rHO2FgDQ3E9ZfaL1L63m-31" value="" style="line;strokeWidth=1;fillColor=none;align=left;verticalAlign=middle;spacingTop=-1;spacingLeft=3;spacingRight=3;rotatable=0;labelPosition=right;points=[];portConstraint=eastwest;strokeColor=inherit;" parent="rHO2FgDQ3E9ZfaL1L63m-29" vertex="1">
          <mxGeometry y="40" width="160" height="8" as="geometry" />
        </mxCell>
        <mxCell id="rHO2FgDQ3E9ZfaL1L63m-33" value="Organizacion&lt;br&gt;" style="swimlane;fontStyle=1;align=center;verticalAlign=top;childLayout=stackLayout;horizontal=1;startSize=26;horizontalStack=0;resizeParent=1;resizeParentMax=0;resizeLast=0;collapsible=1;marginBottom=0;whiteSpace=wrap;html=1;" parent="WIyWlLk6GJQsqaUBKTNV-1" vertex="1">
          <mxGeometry x="730" y="280" width="160" height="148" as="geometry" />
        </mxCell>
        <mxCell id="rHO2FgDQ3E9ZfaL1L63m-34" value="- nombre&lt;br&gt;- descripcion&lt;br&gt;- direccion&lt;br&gt;- horarios&lt;br&gt;- telefono&lt;br&gt;" style="text;strokeColor=none;fillColor=none;align=left;verticalAlign=top;spacingLeft=4;spacingRight=4;overflow=hidden;rotatable=0;points=[[0,0.5],[1,0.5]];portConstraint=eastwest;whiteSpace=wrap;html=1;" parent="rHO2FgDQ3E9ZfaL1L63m-33" vertex="1">
          <mxGeometry y="26" width="160" height="114" as="geometry" />
        </mxCell>
        <mxCell id="rHO2FgDQ3E9ZfaL1L63m-35" value="" style="line;strokeWidth=1;fillColor=none;align=left;verticalAlign=middle;spacingTop=-1;spacingLeft=3;spacingRight=3;rotatable=0;labelPosition=right;points=[];portConstraint=eastwest;strokeColor=inherit;" parent="rHO2FgDQ3E9ZfaL1L63m-33" vertex="1">
          <mxGeometry y="140" width="160" height="8" as="geometry" />
        </mxCell>
        <mxCell id="rHO2FgDQ3E9ZfaL1L63m-43" value="aviso" style="swimlane;fontStyle=1;align=center;verticalAlign=top;childLayout=stackLayout;horizontal=1;startSize=26;horizontalStack=0;resizeParent=1;resizeParentMax=0;resizeLast=0;collapsible=1;marginBottom=0;whiteSpace=wrap;html=1;" parent="WIyWlLk6GJQsqaUBKTNV-1" vertex="1">
          <mxGeometry x="679.96" y="630" width="160" height="98" as="geometry" />
        </mxCell>
        <mxCell id="rHO2FgDQ3E9ZfaL1L63m-44" value="-telefono&lt;br&gt;-email&lt;br&gt;-fechaDelAviso&lt;br&gt;" style="text;strokeColor=none;fillColor=none;align=left;verticalAlign=top;spacingLeft=4;spacingRight=4;overflow=hidden;rotatable=0;points=[[0,0.5],[1,0.5]];portConstraint=eastwest;whiteSpace=wrap;html=1;" parent="rHO2FgDQ3E9ZfaL1L63m-43" vertex="1">
          <mxGeometry y="26" width="160" height="64" as="geometry" />
        </mxCell>
        <mxCell id="rHO2FgDQ3E9ZfaL1L63m-45" value="" style="line;strokeWidth=1;fillColor=none;align=left;verticalAlign=middle;spacingTop=-1;spacingLeft=3;spacingRight=3;rotatable=0;labelPosition=right;points=[];portConstraint=eastwest;strokeColor=inherit;" parent="rHO2FgDQ3E9ZfaL1L63m-43" vertex="1">
          <mxGeometry y="90" width="160" height="8" as="geometry" />
        </mxCell>
        <mxCell id="rHO2FgDQ3E9ZfaL1L63m-47" value="perfilAnimal&lt;br&gt;" style="swimlane;fontStyle=1;align=center;verticalAlign=top;childLayout=stackLayout;horizontal=1;startSize=26;horizontalStack=0;resizeParent=1;resizeParentMax=0;resizeLast=0;collapsible=1;marginBottom=0;whiteSpace=wrap;html=1;" parent="WIyWlLk6GJQsqaUBKTNV-1" vertex="1">
          <mxGeometry x="1039.96" y="710" width="160" height="118" as="geometry" />
        </mxCell>
        <mxCell id="rHO2FgDQ3E9ZfaL1L63m-48" value="-raza&lt;br&gt;-nombre&lt;br&gt;-edad&lt;br&gt;-descripcion" style="text;strokeColor=none;fillColor=none;align=left;verticalAlign=top;spacingLeft=4;spacingRight=4;overflow=hidden;rotatable=0;points=[[0,0.5],[1,0.5]];portConstraint=eastwest;whiteSpace=wrap;html=1;" parent="rHO2FgDQ3E9ZfaL1L63m-47" vertex="1">
          <mxGeometry y="26" width="160" height="84" as="geometry" />
        </mxCell>
        <mxCell id="rHO2FgDQ3E9ZfaL1L63m-49" value="" style="line;strokeWidth=1;fillColor=none;align=left;verticalAlign=middle;spacingTop=-1;spacingLeft=3;spacingRight=3;rotatable=0;labelPosition=right;points=[];portConstraint=eastwest;strokeColor=inherit;" parent="rHO2FgDQ3E9ZfaL1L63m-47" vertex="1">
          <mxGeometry y="110" width="160" height="8" as="geometry" />
        </mxCell>
        <mxCell id="rHO2FgDQ3E9ZfaL1L63m-55" value="pierdidaOEncontrada&lt;br&gt;" style="swimlane;fontStyle=1;align=center;verticalAlign=top;childLayout=stackLayout;horizontal=1;startSize=26;horizontalStack=0;resizeParent=1;resizeParentMax=0;resizeLast=0;collapsible=1;marginBottom=0;whiteSpace=wrap;html=1;" parent="WIyWlLk6GJQsqaUBKTNV-1" vertex="1">
          <mxGeometry x="614.96" y="860" width="160" height="74" as="geometry" />
        </mxCell>
        <mxCell id="rHO2FgDQ3E9ZfaL1L63m-56" value="-direccion&lt;br&gt;-fechaDelSuceso&lt;br&gt;" style="text;strokeColor=none;fillColor=none;align=left;verticalAlign=top;spacingLeft=4;spacingRight=4;overflow=hidden;rotatable=0;points=[[0,0.5],[1,0.5]];portConstraint=eastwest;whiteSpace=wrap;html=1;" parent="rHO2FgDQ3E9ZfaL1L63m-55" vertex="1">
          <mxGeometry y="26" width="160" height="34" as="geometry" />
        </mxCell>
        <mxCell id="rHO2FgDQ3E9ZfaL1L63m-57" value="" style="line;strokeWidth=1;fillColor=none;align=left;verticalAlign=middle;spacingTop=-1;spacingLeft=3;spacingRight=3;rotatable=0;labelPosition=right;points=[];portConstraint=eastwest;strokeColor=inherit;" parent="rHO2FgDQ3E9ZfaL1L63m-55" vertex="1">
          <mxGeometry y="60" width="160" height="12" as="geometry" />
        </mxCell>
        <mxCell id="rHO2FgDQ3E9ZfaL1L63m-58" value="&lt;br&gt;" style="text;strokeColor=none;fillColor=none;align=left;verticalAlign=top;spacingLeft=4;spacingRight=4;overflow=hidden;rotatable=0;points=[[0,0.5],[1,0.5]];portConstraint=eastwest;whiteSpace=wrap;html=1;" parent="rHO2FgDQ3E9ZfaL1L63m-55" vertex="1">
          <mxGeometry y="72" width="160" height="2" as="geometry" />
        </mxCell>
        <mxCell id="rHO2FgDQ3E9ZfaL1L63m-59" value="avisoDeAdopcion&lt;br&gt;" style="swimlane;fontStyle=1;align=center;verticalAlign=top;childLayout=stackLayout;horizontal=1;startSize=26;horizontalStack=0;resizeParent=1;resizeParentMax=0;resizeLast=0;collapsible=1;marginBottom=0;whiteSpace=wrap;html=1;" parent="WIyWlLk6GJQsqaUBKTNV-1" vertex="1">
          <mxGeometry x="809.96" y="860" width="160" height="44" as="geometry" />
        </mxCell>
        <mxCell id="rHO2FgDQ3E9ZfaL1L63m-61" value="" style="line;strokeWidth=1;fillColor=none;align=left;verticalAlign=middle;spacingTop=-1;spacingLeft=3;spacingRight=3;rotatable=0;labelPosition=right;points=[];portConstraint=eastwest;strokeColor=inherit;" parent="rHO2FgDQ3E9ZfaL1L63m-59" vertex="1">
          <mxGeometry y="26" width="160" height="8" as="geometry" />
        </mxCell>
        <mxCell id="rHO2FgDQ3E9ZfaL1L63m-62" value="&lt;br&gt;" style="text;strokeColor=none;fillColor=none;align=left;verticalAlign=top;spacingLeft=4;spacingRight=4;overflow=hidden;rotatable=0;points=[[0,0.5],[1,0.5]];portConstraint=eastwest;whiteSpace=wrap;html=1;" parent="rHO2FgDQ3E9ZfaL1L63m-59" vertex="1">
          <mxGeometry y="34" width="160" height="10" as="geometry" />
        </mxCell>
        <mxCell id="cM0wuDcLqvtJ-Etse94v-1" value="" style="endArrow=block;dashed=1;endFill=0;endSize=12;html=1;rounded=0;exitX=0.45;exitY=-0.041;exitDx=0;exitDy=0;exitPerimeter=0;entryX=0.119;entryY=1;entryDx=0;entryDy=0;entryPerimeter=0;" parent="WIyWlLk6GJQsqaUBKTNV-1" source="rHO2FgDQ3E9ZfaL1L63m-55" target="rHO2FgDQ3E9ZfaL1L63m-45" edge="1">
          <mxGeometry width="160" relative="1" as="geometry">
            <mxPoint x="519.96" y="780" as="sourcePoint" />
            <mxPoint x="680.9200000000001" y="761.0139999999999" as="targetPoint" />
          </mxGeometry>
        </mxCell>
        <mxCell id="cM0wuDcLqvtJ-Etse94v-2" value="" style="endArrow=block;dashed=1;endFill=0;endSize=12;html=1;rounded=0;exitX=0.375;exitY=0;exitDx=0;exitDy=0;exitPerimeter=0;" parent="WIyWlLk6GJQsqaUBKTNV-1" source="rHO2FgDQ3E9ZfaL1L63m-59" edge="1">
          <mxGeometry width="160" relative="1" as="geometry">
            <mxPoint x="859.96" y="826" as="sourcePoint" />
            <mxPoint x="789.96" y="730" as="targetPoint" />
          </mxGeometry>
        </mxCell>
        <mxCell id="cM0wuDcLqvtJ-Etse94v-11" value="" style="endArrow=none;html=1;rounded=0;exitX=1.012;exitY=0.737;exitDx=0;exitDy=0;entryX=0;entryY=0;entryDx=0;entryDy=0;exitPerimeter=0;" parent="WIyWlLk6GJQsqaUBKTNV-1" source="rHO2FgDQ3E9ZfaL1L63m-34" target="rHO2FgDQ3E9ZfaL1L63m-29" edge="1">
          <mxGeometry relative="1" as="geometry">
            <mxPoint x="1410" y="538" as="sourcePoint" />
            <mxPoint x="1569" y="304" as="targetPoint" />
            <Array as="points" />
          </mxGeometry>
        </mxCell>
        <mxCell id="cM0wuDcLqvtJ-Etse94v-41" value="estado" style="swimlane;fontStyle=1;align=center;verticalAlign=top;childLayout=stackLayout;horizontal=1;startSize=26;horizontalStack=0;resizeParent=1;resizeParentMax=0;resizeLast=0;collapsible=1;marginBottom=0;whiteSpace=wrap;html=1;" parent="WIyWlLk6GJQsqaUBKTNV-1" vertex="1">
          <mxGeometry x="394.96" y="934" width="160" height="78" as="geometry" />
        </mxCell>
        <mxCell id="cM0wuDcLqvtJ-Etse94v-42" value="- abierto&lt;br&gt;- cerrado" style="text;strokeColor=none;fillColor=none;align=left;verticalAlign=top;spacingLeft=4;spacingRight=4;overflow=hidden;rotatable=0;points=[[0,0.5],[1,0.5]];portConstraint=eastwest;whiteSpace=wrap;html=1;" parent="cM0wuDcLqvtJ-Etse94v-41" vertex="1">
          <mxGeometry y="26" width="160" height="44" as="geometry" />
        </mxCell>
        <mxCell id="cM0wuDcLqvtJ-Etse94v-43" value="" style="line;strokeWidth=1;fillColor=none;align=left;verticalAlign=middle;spacingTop=-1;spacingLeft=3;spacingRight=3;rotatable=0;labelPosition=right;points=[];portConstraint=eastwest;strokeColor=inherit;" parent="cM0wuDcLqvtJ-Etse94v-41" vertex="1">
          <mxGeometry y="70" width="160" height="8" as="geometry" />
        </mxCell>
        <mxCell id="cM0wuDcLqvtJ-Etse94v-45" value="&amp;lt;enum&amp;gt;" style="text;html=1;align=center;verticalAlign=middle;resizable=0;points=[];autosize=1;strokeColor=none;fillColor=none;" parent="WIyWlLk6GJQsqaUBKTNV-1" vertex="1">
          <mxGeometry x="424.96" y="904" width="70" height="30" as="geometry" />
        </mxCell>
        <mxCell id="cM0wuDcLqvtJ-Etse94v-46" value="" style="endArrow=none;html=1;rounded=0;exitX=0.75;exitY=0;exitDx=0;exitDy=0;entryX=0;entryY=0;entryDx=0;entryDy=0;entryPerimeter=0;" parent="WIyWlLk6GJQsqaUBKTNV-1" source="cM0wuDcLqvtJ-Etse94v-41" edge="1" target="rHO2FgDQ3E9ZfaL1L63m-45">
          <mxGeometry relative="1" as="geometry">
            <mxPoint x="469.96" y="790" as="sourcePoint" />
            <mxPoint x="690" y="720" as="targetPoint" />
          </mxGeometry>
        </mxCell>
        <mxCell id="cM0wuDcLqvtJ-Etse94v-49" value="tiene un" style="text;html=1;align=center;verticalAlign=middle;resizable=0;points=[];autosize=1;strokeColor=none;fillColor=none;rotation=-50;fontSize=17;" parent="WIyWlLk6GJQsqaUBKTNV-1" vertex="1">
          <mxGeometry x="524.96" y="830" width="80" height="30" as="geometry" />
        </mxCell>
        <mxCell id="cM0wuDcLqvtJ-Etse94v-50" value="1" style="text;html=1;align=center;verticalAlign=middle;resizable=0;points=[];autosize=1;strokeColor=none;fillColor=none;" parent="WIyWlLk6GJQsqaUBKTNV-1" vertex="1">
          <mxGeometry x="489.96" y="904" width="30" height="30" as="geometry" />
        </mxCell>
        <mxCell id="cM0wuDcLqvtJ-Etse94v-51" value="*" style="text;html=1;align=center;verticalAlign=middle;resizable=0;points=[];autosize=1;strokeColor=none;fillColor=none;" parent="WIyWlLk6GJQsqaUBKTNV-1" vertex="1">
          <mxGeometry x="649.96" y="710" width="30" height="30" as="geometry" />
        </mxCell>
        <mxCell id="cM0wuDcLqvtJ-Etse94v-52" value="hereda" style="text;html=1;align=center;verticalAlign=middle;resizable=0;points=[];autosize=1;strokeColor=none;fillColor=none;fontSize=17;" parent="WIyWlLk6GJQsqaUBKTNV-1" vertex="1">
          <mxGeometry x="679.96" y="785" width="80" height="30" as="geometry" />
        </mxCell>
        <mxCell id="cM0wuDcLqvtJ-Etse94v-53" value="hereda" style="text;html=1;align=center;verticalAlign=middle;resizable=0;points=[];autosize=1;strokeColor=none;fillColor=none;fontSize=17;" parent="WIyWlLk6GJQsqaUBKTNV-1" vertex="1">
          <mxGeometry x="819.96" y="780" width="80" height="30" as="geometry" />
        </mxCell>
        <mxCell id="cM0wuDcLqvtJ-Etse94v-56" value="1" style="text;html=1;align=center;verticalAlign=middle;resizable=0;points=[];autosize=1;strokeColor=none;fillColor=none;" parent="WIyWlLk6GJQsqaUBKTNV-1" vertex="1">
          <mxGeometry x="890" y="368" width="30" height="30" as="geometry" />
        </mxCell>
        <mxCell id="cM0wuDcLqvtJ-Etse94v-57" value="1" style="text;html=1;align=center;verticalAlign=middle;resizable=0;points=[];autosize=1;strokeColor=none;fillColor=none;" parent="WIyWlLk6GJQsqaUBKTNV-1" vertex="1">
          <mxGeometry x="1058.46" y="460" width="30" height="30" as="geometry" />
        </mxCell>
        <mxCell id="cM0wuDcLqvtJ-Etse94v-62" value="busca" style="text;html=1;align=center;verticalAlign=middle;resizable=0;points=[];autosize=1;strokeColor=none;fillColor=none;rotation=0;fontSize=18;" parent="WIyWlLk6GJQsqaUBKTNV-1" vertex="1">
          <mxGeometry x="500.00000000000006" y="390" width="70" height="40" as="geometry" />
        </mxCell>
        <mxCell id="cM0wuDcLqvtJ-Etse94v-65" value="" style="endArrow=none;html=1;edgeStyle=orthogonalEdgeStyle;rounded=0;entryX=0;entryY=1;entryDx=0;entryDy=0;" parent="WIyWlLk6GJQsqaUBKTNV-1" source="rHO2FgDQ3E9ZfaL1L63m-9" target="rHO2FgDQ3E9ZfaL1L63m-33" edge="1">
          <mxGeometry relative="1" as="geometry">
            <mxPoint x="380" y="630" as="sourcePoint" />
            <mxPoint x="680" y="430" as="targetPoint" />
            <Array as="points">
              <mxPoint x="370" y="430" />
              <mxPoint x="730" y="430" />
            </Array>
          </mxGeometry>
        </mxCell>
        <mxCell id="cM0wuDcLqvtJ-Etse94v-66" value="0...*" style="edgeLabel;resizable=0;html=1;align=left;verticalAlign=bottom;" parent="cM0wuDcLqvtJ-Etse94v-65" connectable="0" vertex="1">
          <mxGeometry x="-1" relative="1" as="geometry">
            <mxPoint x="-35" as="offset" />
          </mxGeometry>
        </mxCell>
        <mxCell id="cM0wuDcLqvtJ-Etse94v-67" value="0..*" style="edgeLabel;resizable=0;html=1;align=right;verticalAlign=bottom;" parent="cM0wuDcLqvtJ-Etse94v-65" connectable="0" vertex="1">
          <mxGeometry x="1" relative="1" as="geometry" />
        </mxCell>
        <mxCell id="cM0wuDcLqvtJ-Etse94v-69" value="" style="endArrow=none;html=1;rounded=0;exitX=1;exitY=0.5;exitDx=0;exitDy=0;entryX=0.013;entryY=0.202;entryDx=0;entryDy=0;entryPerimeter=0;" parent="WIyWlLk6GJQsqaUBKTNV-1" source="rHO2FgDQ3E9ZfaL1L63m-44" target="rHO2FgDQ3E9ZfaL1L63m-48" edge="1">
          <mxGeometry relative="1" as="geometry">
            <mxPoint x="909.96" y="670" as="sourcePoint" />
            <mxPoint x="1069.96" y="670" as="targetPoint" />
          </mxGeometry>
        </mxCell>
        <mxCell id="cM0wuDcLqvtJ-Etse94v-70" value="0..*" style="edgeLabel;resizable=0;html=1;align=left;verticalAlign=bottom;" parent="cM0wuDcLqvtJ-Etse94v-69" connectable="0" vertex="1">
          <mxGeometry x="-1" relative="1" as="geometry" />
        </mxCell>
        <mxCell id="cM0wuDcLqvtJ-Etse94v-71" value="1" style="edgeLabel;resizable=0;html=1;align=right;verticalAlign=bottom;" parent="cM0wuDcLqvtJ-Etse94v-69" connectable="0" vertex="1">
          <mxGeometry x="1" relative="1" as="geometry">
            <mxPoint x="-12" y="-13" as="offset" />
          </mxGeometry>
        </mxCell>
        <mxCell id="cM0wuDcLqvtJ-Etse94v-72" value="pertenece a&amp;nbsp;" style="text;html=1;align=center;verticalAlign=middle;resizable=0;points=[];autosize=1;strokeColor=none;fillColor=none;rotation=15;fontSize=16;" parent="WIyWlLk6GJQsqaUBKTNV-1" vertex="1">
          <mxGeometry x="884.96" y="685" width="110" height="30" as="geometry" />
        </mxCell>
        <mxCell id="cM0wuDcLqvtJ-Etse94v-73" value="foto" style="html=1;whiteSpace=wrap;" parent="WIyWlLk6GJQsqaUBKTNV-1" vertex="1">
          <mxGeometry x="1389.96" y="753" width="110" height="50" as="geometry" />
        </mxCell>
        <mxCell id="cM0wuDcLqvtJ-Etse94v-74" value="" style="endArrow=none;html=1;rounded=0;exitX=1;exitY=0.5;exitDx=0;exitDy=0;entryX=0;entryY=0.5;entryDx=0;entryDy=0;" parent="WIyWlLk6GJQsqaUBKTNV-1" source="rHO2FgDQ3E9ZfaL1L63m-48" target="cM0wuDcLqvtJ-Etse94v-73" edge="1">
          <mxGeometry relative="1" as="geometry">
            <mxPoint x="1029.96" y="896.5" as="sourcePoint" />
            <mxPoint x="1189.96" y="896.5" as="targetPoint" />
          </mxGeometry>
        </mxCell>
        <mxCell id="cM0wuDcLqvtJ-Etse94v-77" value="pertenece a" style="text;html=1;align=center;verticalAlign=middle;resizable=0;points=[];autosize=1;strokeColor=none;fillColor=none;" parent="WIyWlLk6GJQsqaUBKTNV-1" vertex="1">
          <mxGeometry x="1239.96" y="748" width="90" height="30" as="geometry" />
        </mxCell>
        <mxCell id="cM0wuDcLqvtJ-Etse94v-78" value="1" style="text;html=1;align=center;verticalAlign=middle;resizable=0;points=[];autosize=1;strokeColor=none;fillColor=none;" parent="WIyWlLk6GJQsqaUBKTNV-1" vertex="1">
          <mxGeometry x="1194.96" y="745" width="30" height="30" as="geometry" />
        </mxCell>
        <mxCell id="cM0wuDcLqvtJ-Etse94v-79" value="0..*" style="text;html=1;align=center;verticalAlign=middle;resizable=0;points=[];autosize=1;strokeColor=none;fillColor=none;" parent="WIyWlLk6GJQsqaUBKTNV-1" vertex="1">
          <mxGeometry x="1349.96" y="748" width="40" height="30" as="geometry" />
        </mxCell>
        <mxCell id="cM0wuDcLqvtJ-Etse94v-80" value="actividad" style="html=1;whiteSpace=wrap;" parent="WIyWlLk6GJQsqaUBKTNV-1" vertex="1">
          <mxGeometry x="764.96" y="140" width="110" height="50" as="geometry" />
        </mxCell>
        <mxCell id="cM0wuDcLqvtJ-Etse94v-81" value="" style="endArrow=none;html=1;rounded=0;exitX=0.5;exitY=1;exitDx=0;exitDy=0;entryX=0.55;entryY=-0.014;entryDx=0;entryDy=0;entryPerimeter=0;" parent="WIyWlLk6GJQsqaUBKTNV-1" source="cM0wuDcLqvtJ-Etse94v-80" target="rHO2FgDQ3E9ZfaL1L63m-33" edge="1">
          <mxGeometry relative="1" as="geometry">
            <mxPoint x="880" y="260" as="sourcePoint" />
            <mxPoint x="1040" y="260" as="targetPoint" />
          </mxGeometry>
        </mxCell>
        <mxCell id="cM0wuDcLqvtJ-Etse94v-82" value="0..*" style="edgeLabel;resizable=0;html=1;align=left;verticalAlign=bottom;" parent="cM0wuDcLqvtJ-Etse94v-81" connectable="0" vertex="1">
          <mxGeometry x="-1" relative="1" as="geometry">
            <mxPoint x="-25" y="20" as="offset" />
          </mxGeometry>
        </mxCell>
        <mxCell id="cM0wuDcLqvtJ-Etse94v-83" value="*" style="edgeLabel;resizable=0;html=1;align=right;verticalAlign=bottom;fontSize=16;" parent="cM0wuDcLqvtJ-Etse94v-81" connectable="0" vertex="1">
          <mxGeometry x="1" relative="1" as="geometry">
            <mxPoint x="-18" as="offset" />
          </mxGeometry>
        </mxCell>
        <mxCell id="cM0wuDcLqvtJ-Etse94v-84" value="foto" style="html=1;whiteSpace=wrap;" parent="WIyWlLk6GJQsqaUBKTNV-1" vertex="1">
          <mxGeometry x="945" y="170" width="110" height="50" as="geometry" />
        </mxCell>
        <mxCell id="cM0wuDcLqvtJ-Etse94v-85" value="" style="endArrow=none;html=1;rounded=0;exitX=0.838;exitY=0;exitDx=0;exitDy=0;exitPerimeter=0;entryX=0;entryY=1;entryDx=0;entryDy=0;" parent="WIyWlLk6GJQsqaUBKTNV-1" source="rHO2FgDQ3E9ZfaL1L63m-33" target="cM0wuDcLqvtJ-Etse94v-84" edge="1">
          <mxGeometry relative="1" as="geometry">
            <mxPoint x="925" y="240" as="sourcePoint" />
            <mxPoint x="1085" y="240" as="targetPoint" />
          </mxGeometry>
        </mxCell>
        <mxCell id="cM0wuDcLqvtJ-Etse94v-88" value="pertenece" style="text;html=1;align=center;verticalAlign=middle;resizable=0;points=[];autosize=1;strokeColor=none;fillColor=none;rotation=-45;" parent="WIyWlLk6GJQsqaUBKTNV-1" vertex="1">
          <mxGeometry x="855" y="220" width="80" height="30" as="geometry" />
        </mxCell>
        <mxCell id="cM0wuDcLqvtJ-Etse94v-89" value="0..*" style="text;html=1;align=center;verticalAlign=middle;resizable=0;points=[];autosize=1;strokeColor=none;fillColor=none;" parent="WIyWlLk6GJQsqaUBKTNV-1" vertex="1">
          <mxGeometry x="895" y="190" width="40" height="30" as="geometry" />
        </mxCell>
        <mxCell id="cM0wuDcLqvtJ-Etse94v-90" value="1" style="text;html=1;align=center;verticalAlign=middle;resizable=0;points=[];autosize=1;strokeColor=none;fillColor=none;" parent="WIyWlLk6GJQsqaUBKTNV-1" vertex="1">
          <mxGeometry x="845" y="250" width="30" height="30" as="geometry" />
        </mxCell>
        <mxCell id="cM0wuDcLqvtJ-Etse94v-91" value="estado" style="swimlane;fontStyle=0;childLayout=stackLayout;horizontal=1;startSize=26;fillColor=none;horizontalStack=0;resizeParent=1;resizeParentMax=0;resizeLast=0;collapsible=1;marginBottom=0;whiteSpace=wrap;html=1;" parent="WIyWlLk6GJQsqaUBKTNV-1" vertex="1">
          <mxGeometry x="1130" y="311" width="140" height="104" as="geometry" />
        </mxCell>
        <mxCell id="cM0wuDcLqvtJ-Etse94v-92" value="-aceptado" style="text;strokeColor=none;fillColor=none;align=left;verticalAlign=top;spacingLeft=4;spacingRight=4;overflow=hidden;rotatable=0;points=[[0,0.5],[1,0.5]];portConstraint=eastwest;whiteSpace=wrap;html=1;" parent="cM0wuDcLqvtJ-Etse94v-91" vertex="1">
          <mxGeometry y="26" width="140" height="26" as="geometry" />
        </mxCell>
        <mxCell id="cM0wuDcLqvtJ-Etse94v-93" value="-en espera" style="text;strokeColor=none;fillColor=none;align=left;verticalAlign=top;spacingLeft=4;spacingRight=4;overflow=hidden;rotatable=0;points=[[0,0.5],[1,0.5]];portConstraint=eastwest;whiteSpace=wrap;html=1;" parent="cM0wuDcLqvtJ-Etse94v-91" vertex="1">
          <mxGeometry y="52" width="140" height="26" as="geometry" />
        </mxCell>
        <mxCell id="cM0wuDcLqvtJ-Etse94v-94" value="-cancelado" style="text;strokeColor=none;fillColor=none;align=left;verticalAlign=top;spacingLeft=4;spacingRight=4;overflow=hidden;rotatable=0;points=[[0,0.5],[1,0.5]];portConstraint=eastwest;whiteSpace=wrap;html=1;" parent="cM0wuDcLqvtJ-Etse94v-91" vertex="1">
          <mxGeometry y="78" width="140" height="26" as="geometry" />
        </mxCell>
        <mxCell id="cM0wuDcLqvtJ-Etse94v-96" value="" style="endArrow=none;html=1;rounded=0;exitX=1;exitY=0.5;exitDx=0;exitDy=0;" parent="WIyWlLk6GJQsqaUBKTNV-1" source="rHO2FgDQ3E9ZfaL1L63m-34" target="cM0wuDcLqvtJ-Etse94v-91" edge="1">
          <mxGeometry relative="1" as="geometry">
            <mxPoint x="905" y="318.40999999999997" as="sourcePoint" />
            <mxPoint x="1065" y="318.40999999999997" as="targetPoint" />
          </mxGeometry>
        </mxCell>
        <mxCell id="cM0wuDcLqvtJ-Etse94v-97" value="0..*" style="edgeLabel;resizable=0;html=1;align=left;verticalAlign=bottom;fontSize=16;" parent="cM0wuDcLqvtJ-Etse94v-96" connectable="0" vertex="1">
          <mxGeometry x="-1" relative="1" as="geometry" />
        </mxCell>
        <mxCell id="cM0wuDcLqvtJ-Etse94v-98" value="&lt;font style=&quot;font-size: 14px;&quot;&gt;1&lt;/font&gt;" style="edgeLabel;resizable=0;html=1;align=right;verticalAlign=bottom;" parent="cM0wuDcLqvtJ-Etse94v-96" connectable="0" vertex="1">
          <mxGeometry x="1" relative="1" as="geometry" />
        </mxCell>
        <mxCell id="cM0wuDcLqvtJ-Etse94v-99" value="tiene un" style="text;html=1;align=center;verticalAlign=middle;resizable=0;points=[];autosize=1;strokeColor=none;fillColor=none;fontSize=17;" parent="WIyWlLk6GJQsqaUBKTNV-1" vertex="1">
          <mxGeometry x="960" y="330" width="80" height="30" as="geometry" />
        </mxCell>
        <mxCell id="cM0wuDcLqvtJ-Etse94v-100" value="vacuna" style="swimlane;fontStyle=0;childLayout=stackLayout;horizontal=1;startSize=26;fillColor=none;horizontalStack=0;resizeParent=1;resizeParentMax=0;resizeLast=0;collapsible=1;marginBottom=0;whiteSpace=wrap;html=1;" parent="WIyWlLk6GJQsqaUBKTNV-1" vertex="1">
          <mxGeometry x="759.96" y="1020" width="140" height="78" as="geometry" />
        </mxCell>
        <mxCell id="cM0wuDcLqvtJ-Etse94v-101" value="nombre" style="text;strokeColor=none;fillColor=none;align=left;verticalAlign=top;spacingLeft=4;spacingRight=4;overflow=hidden;rotatable=0;points=[[0,0.5],[1,0.5]];portConstraint=eastwest;whiteSpace=wrap;html=1;" parent="cM0wuDcLqvtJ-Etse94v-100" vertex="1">
          <mxGeometry y="26" width="140" height="26" as="geometry" />
        </mxCell>
        <mxCell id="cM0wuDcLqvtJ-Etse94v-102" value="fecha" style="text;strokeColor=none;fillColor=none;align=left;verticalAlign=top;spacingLeft=4;spacingRight=4;overflow=hidden;rotatable=0;points=[[0,0.5],[1,0.5]];portConstraint=eastwest;whiteSpace=wrap;html=1;" parent="cM0wuDcLqvtJ-Etse94v-100" vertex="1">
          <mxGeometry y="52" width="140" height="26" as="geometry" />
        </mxCell>
        <mxCell id="cM0wuDcLqvtJ-Etse94v-104" value="" style="endArrow=none;html=1;rounded=0;exitX=0.44;exitY=-0.011;exitDx=0;exitDy=0;exitPerimeter=0;entryX=0.396;entryY=1.183;entryDx=0;entryDy=0;entryPerimeter=0;" parent="WIyWlLk6GJQsqaUBKTNV-1" source="cM0wuDcLqvtJ-Etse94v-100" target="rHO2FgDQ3E9ZfaL1L63m-62" edge="1">
          <mxGeometry relative="1" as="geometry">
            <mxPoint x="809.96" y="930" as="sourcePoint" />
            <mxPoint x="969.96" y="930" as="targetPoint" />
          </mxGeometry>
        </mxCell>
        <mxCell id="cM0wuDcLqvtJ-Etse94v-107" value="0..*" style="text;html=1;align=center;verticalAlign=middle;resizable=0;points=[];autosize=1;strokeColor=none;fillColor=none;" parent="WIyWlLk6GJQsqaUBKTNV-1" vertex="1">
          <mxGeometry x="819.96" y="904" width="40" height="30" as="geometry" />
        </mxCell>
        <mxCell id="cM0wuDcLqvtJ-Etse94v-108" value="0..*" style="text;html=1;align=center;verticalAlign=middle;resizable=0;points=[];autosize=1;strokeColor=none;fillColor=none;" parent="WIyWlLk6GJQsqaUBKTNV-1" vertex="1">
          <mxGeometry x="784.96" y="990" width="40" height="30" as="geometry" />
        </mxCell>
        <mxCell id="cM0wuDcLqvtJ-Etse94v-109" value="tiene esta" style="text;html=1;align=center;verticalAlign=middle;resizable=0;points=[];autosize=1;strokeColor=none;fillColor=none;" parent="WIyWlLk6GJQsqaUBKTNV-1" vertex="1">
          <mxGeometry x="764.96" y="950" width="80" height="30" as="geometry" />
        </mxCell>
        <mxCell id="cM0wuDcLqvtJ-Etse94v-110" value="cuidado extra" style="swimlane;fontStyle=0;childLayout=stackLayout;horizontal=1;startSize=26;fillColor=none;horizontalStack=0;resizeParent=1;resizeParentMax=0;resizeLast=0;collapsible=1;marginBottom=0;whiteSpace=wrap;html=1;" parent="WIyWlLk6GJQsqaUBKTNV-1" vertex="1">
          <mxGeometry x="959.96" y="1020" width="130" height="70" as="geometry" />
        </mxCell>
        <mxCell id="cM0wuDcLqvtJ-Etse94v-111" value="-descripcion&lt;br&gt;-nombre" style="text;strokeColor=none;fillColor=none;align=left;verticalAlign=top;spacingLeft=4;spacingRight=4;overflow=hidden;rotatable=0;points=[[0,0.5],[1,0.5]];portConstraint=eastwest;whiteSpace=wrap;html=1;" parent="cM0wuDcLqvtJ-Etse94v-110" vertex="1">
          <mxGeometry y="26" width="130" height="44" as="geometry" />
        </mxCell>
        <mxCell id="cM0wuDcLqvtJ-Etse94v-114" value="" style="endArrow=none;html=1;rounded=0;exitX=0.797;exitY=0.933;exitDx=0;exitDy=0;exitPerimeter=0;entryX=0.41;entryY=-0.036;entryDx=0;entryDy=0;entryPerimeter=0;" parent="WIyWlLk6GJQsqaUBKTNV-1" source="rHO2FgDQ3E9ZfaL1L63m-62" target="cM0wuDcLqvtJ-Etse94v-110" edge="1">
          <mxGeometry relative="1" as="geometry">
            <mxPoint x="919.96" y="980" as="sourcePoint" />
            <mxPoint x="1079.96" y="980" as="targetPoint" />
          </mxGeometry>
        </mxCell>
        <mxCell id="cM0wuDcLqvtJ-Etse94v-117" value="0..*" style="text;html=1;align=center;verticalAlign=middle;resizable=0;points=[];autosize=1;strokeColor=none;fillColor=none;" parent="WIyWlLk6GJQsqaUBKTNV-1" vertex="1">
          <mxGeometry x="1008.46" y="990" width="40" height="30" as="geometry" />
        </mxCell>
        <mxCell id="cM0wuDcLqvtJ-Etse94v-118" value="0..*" style="text;html=1;align=center;verticalAlign=middle;resizable=0;points=[];autosize=1;strokeColor=none;fillColor=none;" parent="WIyWlLk6GJQsqaUBKTNV-1" vertex="1">
          <mxGeometry x="948.46" y="908" width="40" height="30" as="geometry" />
        </mxCell>
        <mxCell id="cM0wuDcLqvtJ-Etse94v-119" value="tiene este" style="text;html=1;align=center;verticalAlign=middle;resizable=0;points=[];autosize=1;strokeColor=none;fillColor=none;" parent="WIyWlLk6GJQsqaUBKTNV-1" vertex="1">
          <mxGeometry x="978.46" y="950" width="80" height="30" as="geometry" />
        </mxCell>
        <mxCell id="cM0wuDcLqvtJ-Etse94v-126" value="" style="endArrow=none;html=1;rounded=0;entryX=0.013;entryY=0.031;entryDx=0;entryDy=0;entryPerimeter=0;" parent="WIyWlLk6GJQsqaUBKTNV-1" target="rHO2FgDQ3E9ZfaL1L63m-44" edge="1">
          <mxGeometry relative="1" as="geometry">
            <mxPoint x="449.96" y="659" as="sourcePoint" />
            <mxPoint x="609.96" y="659" as="targetPoint" />
          </mxGeometry>
        </mxCell>
        <mxCell id="cM0wuDcLqvtJ-Etse94v-127" value="crea" style="edgeLabel;resizable=0;html=1;align=left;verticalAlign=bottom;fontSize=15;" parent="cM0wuDcLqvtJ-Etse94v-126" connectable="0" vertex="1">
          <mxGeometry x="-1" relative="1" as="geometry">
            <mxPoint x="80" as="offset" />
          </mxGeometry>
        </mxCell>
        <mxCell id="cM0wuDcLqvtJ-Etse94v-128" value="1.*" style="edgeLabel;resizable=0;html=1;align=right;verticalAlign=bottom;" parent="cM0wuDcLqvtJ-Etse94v-126" connectable="0" vertex="1">
          <mxGeometry x="1" relative="1" as="geometry">
            <mxPoint x="-12" as="offset" />
          </mxGeometry>
        </mxCell>
        <mxCell id="cM0wuDcLqvtJ-Etse94v-129" value="1" style="text;html=1;align=center;verticalAlign=middle;resizable=0;points=[];autosize=1;strokeColor=none;fillColor=none;" parent="WIyWlLk6GJQsqaUBKTNV-1" vertex="1">
          <mxGeometry x="444.96" y="635" width="30" height="30" as="geometry" />
        </mxCell>
        <mxCell id="cM0wuDcLqvtJ-Etse94v-137" value="categoria" style="swimlane;fontStyle=0;childLayout=stackLayout;horizontal=1;startSize=26;fillColor=none;horizontalStack=0;resizeParent=1;resizeParentMax=0;resizeLast=0;collapsible=1;marginBottom=0;whiteSpace=wrap;html=1;" parent="WIyWlLk6GJQsqaUBKTNV-1" vertex="1">
          <mxGeometry x="500" y="160" width="140" height="78" as="geometry" />
        </mxCell>
        <mxCell id="cM0wuDcLqvtJ-Etse94v-138" value="- destacado" style="text;strokeColor=none;fillColor=none;align=left;verticalAlign=top;spacingLeft=4;spacingRight=4;overflow=hidden;rotatable=0;points=[[0,0.5],[1,0.5]];portConstraint=eastwest;whiteSpace=wrap;html=1;" parent="cM0wuDcLqvtJ-Etse94v-137" vertex="1">
          <mxGeometry y="26" width="140" height="26" as="geometry" />
        </mxCell>
        <mxCell id="cM0wuDcLqvtJ-Etse94v-139" value="- comun" style="text;strokeColor=none;fillColor=none;align=left;verticalAlign=top;spacingLeft=4;spacingRight=4;overflow=hidden;rotatable=0;points=[[0,0.5],[1,0.5]];portConstraint=eastwest;whiteSpace=wrap;html=1;" parent="cM0wuDcLqvtJ-Etse94v-137" vertex="1">
          <mxGeometry y="52" width="140" height="26" as="geometry" />
        </mxCell>
        <mxCell id="cM0wuDcLqvtJ-Etse94v-142" value="" style="endArrow=none;html=1;edgeStyle=orthogonalEdgeStyle;rounded=0;exitX=1;exitY=0.5;exitDx=0;exitDy=0;entryX=0.044;entryY=-0.014;entryDx=0;entryDy=0;entryPerimeter=0;" parent="WIyWlLk6GJQsqaUBKTNV-1" source="cM0wuDcLqvtJ-Etse94v-139" target="rHO2FgDQ3E9ZfaL1L63m-33" edge="1">
          <mxGeometry relative="1" as="geometry">
            <mxPoint x="580" y="270" as="sourcePoint" />
            <mxPoint x="740" y="270" as="targetPoint" />
          </mxGeometry>
        </mxCell>
        <mxCell id="cM0wuDcLqvtJ-Etse94v-143" value="1" style="edgeLabel;resizable=0;html=1;align=left;verticalAlign=bottom;" parent="cM0wuDcLqvtJ-Etse94v-142" connectable="0" vertex="1">
          <mxGeometry x="-1" relative="1" as="geometry" />
        </mxCell>
        <mxCell id="cM0wuDcLqvtJ-Etse94v-144" value="*" style="edgeLabel;resizable=0;html=1;align=right;verticalAlign=bottom;fontSize=18;" parent="cM0wuDcLqvtJ-Etse94v-142" connectable="0" vertex="1">
          <mxGeometry x="1" relative="1" as="geometry">
            <mxPoint x="-7" y="12" as="offset" />
          </mxGeometry>
        </mxCell>
        <mxCell id="cM0wuDcLqvtJ-Etse94v-146" value="tiene una" style="text;html=1;align=center;verticalAlign=middle;resizable=0;points=[];autosize=1;strokeColor=none;fillColor=none;fontSize=16;" parent="WIyWlLk6GJQsqaUBKTNV-1" vertex="1">
          <mxGeometry x="650" y="230" width="90" height="30" as="geometry" />
        </mxCell>
        <mxCell id="ocFqyMMRtbSS1KVvrSfb-4" value="representa a" style="text;html=1;align=center;verticalAlign=middle;resizable=0;points=[];autosize=1;strokeColor=none;fillColor=none;" vertex="1" parent="WIyWlLk6GJQsqaUBKTNV-1">
          <mxGeometry x="969.96" y="414" width="90" height="30" as="geometry" />
        </mxCell>
        <mxCell id="ocFqyMMRtbSS1KVvrSfb-5" value="" style="endArrow=block;dashed=1;endFill=0;endSize=12;html=1;rounded=0;exitX=0;exitY=1;exitDx=0;exitDy=0;entryX=0.896;entryY=-0.012;entryDx=0;entryDy=0;entryPerimeter=0;" edge="1" parent="WIyWlLk6GJQsqaUBKTNV-1" source="rHO2FgDQ3E9ZfaL1L63m-29" target="rHO2FgDQ3E9ZfaL1L63m-9">
          <mxGeometry width="160" relative="1" as="geometry">
            <mxPoint x="880" y="620" as="sourcePoint" />
            <mxPoint x="799.96" y="490" as="targetPoint" />
          </mxGeometry>
        </mxCell>
        <mxCell id="ocFqyMMRtbSS1KVvrSfb-6" value="hereda" style="text;html=1;align=center;verticalAlign=middle;resizable=0;points=[];autosize=1;strokeColor=none;fillColor=none;fontSize=17;" vertex="1" parent="WIyWlLk6GJQsqaUBKTNV-1">
          <mxGeometry x="750" y="500" width="80" height="30" as="geometry" />
        </mxCell>
        <mxCell id="ocFqyMMRtbSS1KVvrSfb-8" value="Rechazo" style="swimlane;fontStyle=1;align=center;verticalAlign=top;childLayout=stackLayout;horizontal=1;startSize=26;horizontalStack=0;resizeParent=1;resizeParentMax=0;resizeLast=0;collapsible=1;marginBottom=0;whiteSpace=wrap;html=1;" vertex="1" parent="WIyWlLk6GJQsqaUBKTNV-1">
          <mxGeometry x="120" y="217" width="160" height="68" as="geometry" />
        </mxCell>
        <mxCell id="ocFqyMMRtbSS1KVvrSfb-9" value="-Fecha&lt;br&gt;-Motivo" style="text;strokeColor=none;fillColor=none;align=left;verticalAlign=top;spacingLeft=4;spacingRight=4;overflow=hidden;rotatable=0;points=[[0,0.5],[1,0.5]];portConstraint=eastwest;whiteSpace=wrap;html=1;" vertex="1" parent="ocFqyMMRtbSS1KVvrSfb-8">
          <mxGeometry y="26" width="160" height="34" as="geometry" />
        </mxCell>
        <mxCell id="ocFqyMMRtbSS1KVvrSfb-10" value="" style="line;strokeWidth=1;fillColor=none;align=left;verticalAlign=middle;spacingTop=-1;spacingLeft=3;spacingRight=3;rotatable=0;labelPosition=right;points=[];portConstraint=eastwest;strokeColor=inherit;" vertex="1" parent="ocFqyMMRtbSS1KVvrSfb-8">
          <mxGeometry y="60" width="160" height="8" as="geometry" />
        </mxCell>
        <mxCell id="ocFqyMMRtbSS1KVvrSfb-11" value="Coordenadas" style="swimlane;fontStyle=1;align=center;verticalAlign=top;childLayout=stackLayout;horizontal=1;startSize=26;horizontalStack=0;resizeParent=1;resizeParentMax=0;resizeLast=0;collapsible=1;marginBottom=0;whiteSpace=wrap;html=1;" vertex="1" parent="WIyWlLk6GJQsqaUBKTNV-1">
          <mxGeometry x="120" y="300" width="160" height="68" as="geometry" />
        </mxCell>
        <mxCell id="ocFqyMMRtbSS1KVvrSfb-12" value="-Lat&lt;br&gt;-Long" style="text;strokeColor=none;fillColor=none;align=left;verticalAlign=top;spacingLeft=4;spacingRight=4;overflow=hidden;rotatable=0;points=[[0,0.5],[1,0.5]];portConstraint=eastwest;whiteSpace=wrap;html=1;" vertex="1" parent="ocFqyMMRtbSS1KVvrSfb-11">
          <mxGeometry y="26" width="160" height="34" as="geometry" />
        </mxCell>
        <mxCell id="ocFqyMMRtbSS1KVvrSfb-13" value="" style="line;strokeWidth=1;fillColor=none;align=left;verticalAlign=middle;spacingTop=-1;spacingLeft=3;spacingRight=3;rotatable=0;labelPosition=right;points=[];portConstraint=eastwest;strokeColor=inherit;" vertex="1" parent="ocFqyMMRtbSS1KVvrSfb-11">
          <mxGeometry y="60" width="160" height="8" as="geometry" />
        </mxCell>
        <mxCell id="ocFqyMMRtbSS1KVvrSfb-14" value="Servicios" style="swimlane;fontStyle=1;align=center;verticalAlign=top;childLayout=stackLayout;horizontal=1;startSize=26;horizontalStack=0;resizeParent=1;resizeParentMax=0;resizeLast=0;collapsible=1;marginBottom=0;whiteSpace=wrap;html=1;" vertex="1" parent="WIyWlLk6GJQsqaUBKTNV-1">
          <mxGeometry x="120" y="386" width="160" height="58" as="geometry" />
        </mxCell>
        <mxCell id="ocFqyMMRtbSS1KVvrSfb-15" value="-Descripcion" style="text;strokeColor=none;fillColor=none;align=left;verticalAlign=top;spacingLeft=4;spacingRight=4;overflow=hidden;rotatable=0;points=[[0,0.5],[1,0.5]];portConstraint=eastwest;whiteSpace=wrap;html=1;" vertex="1" parent="ocFqyMMRtbSS1KVvrSfb-14">
          <mxGeometry y="26" width="160" height="24" as="geometry" />
        </mxCell>
        <mxCell id="ocFqyMMRtbSS1KVvrSfb-16" value="" style="line;strokeWidth=1;fillColor=none;align=left;verticalAlign=middle;spacingTop=-1;spacingLeft=3;spacingRight=3;rotatable=0;labelPosition=right;points=[];portConstraint=eastwest;strokeColor=inherit;" vertex="1" parent="ocFqyMMRtbSS1KVvrSfb-14">
          <mxGeometry y="50" width="160" height="8" as="geometry" />
        </mxCell>
        <mxCell id="ocFqyMMRtbSS1KVvrSfb-18" value="" style="endArrow=none;html=1;rounded=0;exitX=1.012;exitY=0.737;exitDx=0;exitDy=0;entryX=0.005;entryY=0.135;entryDx=0;entryDy=0;exitPerimeter=0;entryPerimeter=0;" edge="1" parent="WIyWlLk6GJQsqaUBKTNV-1" target="rHO2FgDQ3E9ZfaL1L63m-33">
          <mxGeometry relative="1" as="geometry">
            <mxPoint x="280" y="257" as="sourcePoint" />
            <mxPoint x="558" y="253" as="targetPoint" />
            <Array as="points">
              <mxPoint x="510" y="257" />
            </Array>
          </mxGeometry>
        </mxCell>
        <mxCell id="ocFqyMMRtbSS1KVvrSfb-19" value="0...1" style="text;html=1;align=center;verticalAlign=middle;resizable=0;points=[];autosize=1;strokeColor=none;fillColor=none;" vertex="1" parent="WIyWlLk6GJQsqaUBKTNV-1">
          <mxGeometry x="289.96" y="220" width="50" height="30" as="geometry" />
        </mxCell>
        <mxCell id="ocFqyMMRtbSS1KVvrSfb-20" value="1" style="text;html=1;align=center;verticalAlign=middle;resizable=0;points=[];autosize=1;strokeColor=none;fillColor=none;" vertex="1" parent="WIyWlLk6GJQsqaUBKTNV-1">
          <mxGeometry x="695" y="270" width="30" height="30" as="geometry" />
        </mxCell>
        <mxCell id="ocFqyMMRtbSS1KVvrSfb-21" value="" style="endArrow=none;html=1;rounded=0;exitX=1;exitY=0.5;exitDx=0;exitDy=0;entryX=-0.019;entryY=0.331;entryDx=0;entryDy=0;entryPerimeter=0;" edge="1" parent="WIyWlLk6GJQsqaUBKTNV-1" source="ocFqyMMRtbSS1KVvrSfb-12" target="rHO2FgDQ3E9ZfaL1L63m-34">
          <mxGeometry relative="1" as="geometry">
            <mxPoint x="280" y="336" as="sourcePoint" />
            <mxPoint x="558" y="332" as="targetPoint" />
            <Array as="points" />
          </mxGeometry>
        </mxCell>
        <mxCell id="ocFqyMMRtbSS1KVvrSfb-22" value="1" style="text;html=1;align=center;verticalAlign=middle;resizable=0;points=[];autosize=1;strokeColor=none;fillColor=none;" vertex="1" parent="WIyWlLk6GJQsqaUBKTNV-1">
          <mxGeometry x="290" y="315" width="30" height="30" as="geometry" />
        </mxCell>
        <mxCell id="ocFqyMMRtbSS1KVvrSfb-23" value="1" style="text;html=1;align=center;verticalAlign=middle;resizable=0;points=[];autosize=1;strokeColor=none;fillColor=none;" vertex="1" parent="WIyWlLk6GJQsqaUBKTNV-1">
          <mxGeometry x="689.96" y="319" width="30" height="30" as="geometry" />
        </mxCell>
        <mxCell id="ocFqyMMRtbSS1KVvrSfb-24" value="" style="endArrow=none;html=1;rounded=0;exitX=1;exitY=0.5;exitDx=0;exitDy=0;entryX=0.005;entryY=0.737;entryDx=0;entryDy=0;entryPerimeter=0;" edge="1" parent="WIyWlLk6GJQsqaUBKTNV-1" source="ocFqyMMRtbSS1KVvrSfb-15" target="rHO2FgDQ3E9ZfaL1L63m-34">
          <mxGeometry relative="1" as="geometry">
            <mxPoint x="335.96000000000004" y="390" as="sourcePoint" />
            <mxPoint x="613.96" y="386" as="targetPoint" />
            <Array as="points">
              <mxPoint x="350" y="390" />
            </Array>
          </mxGeometry>
        </mxCell>
        <mxCell id="ocFqyMMRtbSS1KVvrSfb-25" value="*" style="text;html=1;align=center;verticalAlign=middle;resizable=0;points=[];autosize=1;strokeColor=none;fillColor=none;" vertex="1" parent="WIyWlLk6GJQsqaUBKTNV-1">
          <mxGeometry x="280" y="390" width="30" height="30" as="geometry" />
        </mxCell>
        <mxCell id="ocFqyMMRtbSS1KVvrSfb-26" value="1" style="text;html=1;align=center;verticalAlign=middle;resizable=0;points=[];autosize=1;strokeColor=none;fillColor=none;" vertex="1" parent="WIyWlLk6GJQsqaUBKTNV-1">
          <mxGeometry x="689.96" y="360" width="30" height="30" as="geometry" />
        </mxCell>
        <mxCell id="ocFqyMMRtbSS1KVvrSfb-27" value="Tiene" style="text;html=1;align=center;verticalAlign=middle;resizable=0;points=[];autosize=1;strokeColor=none;fillColor=none;" vertex="1" parent="WIyWlLk6GJQsqaUBKTNV-1">
          <mxGeometry x="375" y="228" width="50" height="30" as="geometry" />
        </mxCell>
        <mxCell id="ocFqyMMRtbSS1KVvrSfb-28" value="Tiene una" style="text;html=1;align=center;verticalAlign=middle;resizable=0;points=[];autosize=1;strokeColor=none;fillColor=none;" vertex="1" parent="WIyWlLk6GJQsqaUBKTNV-1">
          <mxGeometry x="375" y="310" width="80" height="30" as="geometry" />
        </mxCell>
        <mxCell id="ocFqyMMRtbSS1KVvrSfb-29" value="Tiene" style="text;html=1;align=center;verticalAlign=middle;resizable=0;points=[];autosize=1;strokeColor=none;fillColor=none;" vertex="1" parent="WIyWlLk6GJQsqaUBKTNV-1">
          <mxGeometry x="449.96" y="360" width="50" height="30" as="geometry" />
        </mxCell>
        <mxCell id="ocFqyMMRtbSS1KVvrSfb-37" value="" style="endArrow=none;html=1;rounded=0;exitX=1;exitY=0.5;exitDx=0;exitDy=0;" edge="1" parent="WIyWlLk6GJQsqaUBKTNV-1" source="rHO2FgDQ3E9ZfaL1L63m-29">
          <mxGeometry relative="1" as="geometry">
            <mxPoint x="1349.96" y="414" as="sourcePoint" />
            <mxPoint x="1310" y="524" as="targetPoint" />
            <Array as="points" />
          </mxGeometry>
        </mxCell>
        <mxCell id="ocFqyMMRtbSS1KVvrSfb-38" value="" style="endArrow=none;html=1;rounded=0;exitX=0.5;exitY=1;exitDx=0;exitDy=0;entryX=0.5;entryY=0;entryDx=0;entryDy=0;" edge="1" parent="WIyWlLk6GJQsqaUBKTNV-1">
          <mxGeometry relative="1" as="geometry">
            <mxPoint x="1365" y="556.0000000000002" as="sourcePoint" />
            <mxPoint x="1365" y="598" as="targetPoint" />
            <Array as="points" />
          </mxGeometry>
        </mxCell>
        <mxCell id="ocFqyMMRtbSS1KVvrSfb-39" value="" style="endArrow=none;html=1;rounded=0;exitX=1;exitY=0.5;exitDx=0;exitDy=0;entryX=0;entryY=0.5;entryDx=0;entryDy=0;" edge="1" parent="WIyWlLk6GJQsqaUBKTNV-1">
          <mxGeometry relative="1" as="geometry">
            <mxPoint x="1420" y="622" as="sourcePoint" />
            <mxPoint x="1480" y="622" as="targetPoint" />
            <Array as="points" />
          </mxGeometry>
        </mxCell>
        <mxCell id="ocFqyMMRtbSS1KVvrSfb-40" value="*" style="text;html=1;align=center;verticalAlign=middle;resizable=0;points=[];autosize=1;strokeColor=none;fillColor=none;" vertex="1" parent="WIyWlLk6GJQsqaUBKTNV-1">
          <mxGeometry x="1280" y="490" width="30" height="30" as="geometry" />
        </mxCell>
        <mxCell id="ocFqyMMRtbSS1KVvrSfb-41" value="1" style="text;html=1;align=center;verticalAlign=middle;resizable=0;points=[];autosize=1;strokeColor=none;fillColor=none;" vertex="1" parent="WIyWlLk6GJQsqaUBKTNV-1">
          <mxGeometry x="1359.96" y="570" width="30" height="30" as="geometry" />
        </mxCell>
        <mxCell id="ocFqyMMRtbSS1KVvrSfb-42" value="1" style="text;html=1;align=center;verticalAlign=middle;resizable=0;points=[];autosize=1;strokeColor=none;fillColor=none;" vertex="1" parent="WIyWlLk6GJQsqaUBKTNV-1">
          <mxGeometry x="1450" y="590" width="30" height="30" as="geometry" />
        </mxCell>
        <mxCell id="ocFqyMMRtbSS1KVvrSfb-43" value="Donacion" style="html=1;whiteSpace=wrap;" vertex="1" parent="WIyWlLk6GJQsqaUBKTNV-1">
          <mxGeometry x="1310" y="510" width="110" height="50" as="geometry" />
        </mxCell>
        <mxCell id="ocFqyMMRtbSS1KVvrSfb-44" value="Factura" style="html=1;whiteSpace=wrap;" vertex="1" parent="WIyWlLk6GJQsqaUBKTNV-1">
          <mxGeometry x="1310" y="600" width="110" height="50" as="geometry" />
        </mxCell>
        <mxCell id="ocFqyMMRtbSS1KVvrSfb-45" value="Pago" style="html=1;whiteSpace=wrap;" vertex="1" parent="WIyWlLk6GJQsqaUBKTNV-1">
          <mxGeometry x="1480" y="600" width="110" height="50" as="geometry" />
        </mxCell>
        <mxCell id="ocFqyMMRtbSS1KVvrSfb-46" value="Exportacion" style="swimlane;fontStyle=0;childLayout=stackLayout;horizontal=1;startSize=26;fillColor=none;horizontalStack=0;resizeParent=1;resizeParentMax=0;resizeLast=0;collapsible=1;marginBottom=0;whiteSpace=wrap;html=1;" vertex="1" parent="WIyWlLk6GJQsqaUBKTNV-1">
          <mxGeometry x="1130" y="112" width="140" height="78" as="geometry" />
        </mxCell>
        <mxCell id="ocFqyMMRtbSS1KVvrSfb-47" value="-Fecha reporte" style="text;strokeColor=none;fillColor=none;align=left;verticalAlign=top;spacingLeft=4;spacingRight=4;overflow=hidden;rotatable=0;points=[[0,0.5],[1,0.5]];portConstraint=eastwest;whiteSpace=wrap;html=1;" vertex="1" parent="ocFqyMMRtbSS1KVvrSfb-46">
          <mxGeometry y="26" width="140" height="26" as="geometry" />
        </mxCell>
        <mxCell id="ocFqyMMRtbSS1KVvrSfb-48" value="- Fecha envio" style="text;strokeColor=none;fillColor=none;align=left;verticalAlign=top;spacingLeft=4;spacingRight=4;overflow=hidden;rotatable=0;points=[[0,0.5],[1,0.5]];portConstraint=eastwest;whiteSpace=wrap;html=1;" vertex="1" parent="ocFqyMMRtbSS1KVvrSfb-46">
          <mxGeometry y="52" width="140" height="26" as="geometry" />
        </mxCell>
        <mxCell id="ocFqyMMRtbSS1KVvrSfb-55" value="Error registrado" style="swimlane;fontStyle=0;childLayout=stackLayout;horizontal=1;startSize=26;fillColor=none;horizontalStack=0;resizeParent=1;resizeParentMax=0;resizeLast=0;collapsible=1;marginBottom=0;whiteSpace=wrap;html=1;" vertex="1" parent="WIyWlLk6GJQsqaUBKTNV-1">
          <mxGeometry x="1359.96" y="112" width="140" height="52" as="geometry" />
        </mxCell>
        <mxCell id="ocFqyMMRtbSS1KVvrSfb-56" value="-Fecha&amp;nbsp;" style="text;strokeColor=none;fillColor=none;align=left;verticalAlign=top;spacingLeft=4;spacingRight=4;overflow=hidden;rotatable=0;points=[[0,0.5],[1,0.5]];portConstraint=eastwest;whiteSpace=wrap;html=1;" vertex="1" parent="ocFqyMMRtbSS1KVvrSfb-55">
          <mxGeometry y="26" width="140" height="26" as="geometry" />
        </mxCell>
        <mxCell id="ocFqyMMRtbSS1KVvrSfb-58" value="" style="endArrow=none;html=1;rounded=0;exitX=1;exitY=0.5;exitDx=0;exitDy=0;entryX=0;entryY=0.5;entryDx=0;entryDy=0;" edge="1" parent="WIyWlLk6GJQsqaUBKTNV-1" source="ocFqyMMRtbSS1KVvrSfb-47" target="ocFqyMMRtbSS1KVvrSfb-56">
          <mxGeometry relative="1" as="geometry">
            <mxPoint x="1280" y="150" as="sourcePoint" />
            <mxPoint x="1320" y="150" as="targetPoint" />
            <Array as="points" />
          </mxGeometry>
        </mxCell>
        <mxCell id="ocFqyMMRtbSS1KVvrSfb-59" value="1" style="text;html=1;align=center;verticalAlign=middle;resizable=0;points=[];autosize=1;strokeColor=none;fillColor=none;" vertex="1" parent="WIyWlLk6GJQsqaUBKTNV-1">
          <mxGeometry x="1270" y="123" width="30" height="30" as="geometry" />
        </mxCell>
        <mxCell id="ocFqyMMRtbSS1KVvrSfb-61" value="" style="endArrow=none;html=1;rounded=0;exitX=0.997;exitY=0.156;exitDx=0;exitDy=0;exitPerimeter=0;" edge="1" parent="WIyWlLk6GJQsqaUBKTNV-1" source="rHO2FgDQ3E9ZfaL1L63m-34" target="ocFqyMMRtbSS1KVvrSfb-46">
          <mxGeometry relative="1" as="geometry">
            <mxPoint x="959.96" y="280" as="sourcePoint" />
            <mxPoint x="1199.96" y="280" as="targetPoint" />
          </mxGeometry>
        </mxCell>
        <mxCell id="ocFqyMMRtbSS1KVvrSfb-62" value="0..*" style="edgeLabel;resizable=0;html=1;align=left;verticalAlign=bottom;fontSize=16;" connectable="0" vertex="1" parent="ocFqyMMRtbSS1KVvrSfb-61">
          <mxGeometry x="-1" relative="1" as="geometry" />
        </mxCell>
        <mxCell id="ocFqyMMRtbSS1KVvrSfb-63" value="&lt;font style=&quot;font-size: 14px;&quot;&gt;*&lt;/font&gt;" style="edgeLabel;resizable=0;html=1;align=right;verticalAlign=bottom;" connectable="0" vertex="1" parent="ocFqyMMRtbSS1KVvrSfb-61">
          <mxGeometry x="1" relative="1" as="geometry" />
        </mxCell>
      </root>
    </mxGraphModel>
  </diagram>
</mxfile>
